<?xml version="1.0" standalone="no"?>
<!DOCTYPE svg PUBLIC "-//W3C//DTD SVG 20010904//EN" "http://www.w3.org/TR/2001/REC-SVG-20010904/DTD/svg10.dtd">
<svg id="hotmart" version="1.0" xmlns="http://www.w3.org/2000/svg" viewBox="0 0 512.000000 512.000000"
    preserveAspectRatio="xMidYMid meet">

    <g transform="translate(0.000000,512.000000) scale(0.100000,-0.100000)" fill="#f04e23" stroke="none">
        <path d="M2703 4780 c-253 -98 -460 -303 -626 -620 -52 -98 -117 -257 -231
-561 -26 -69 -56 -140 -66 -157 -66 -109 -162 -58 -146 77 8 63 30 146 57 209
10 23 15 42 11 42 -23 0 -191 -210 -295 -368 -264 -401 -441 -913 -472 -1367
-7 -111 8 -305 35 -431 118 -567 543 -1039 1090 -1212 406 -129 827 -99 1205
83 474 229 806 667 896 1185 23 132 27 426 8 597 -42 382 -189 836 -380 1173
-34 60 -65 110 -68 110 -3 0 -4 -38 -3 -84 4 -80 3 -85 -25 -116 -51 -57 -141
-41 -179 31 -8 17 -29 99 -44 182 -36 184 -68 275 -130 370 -45 69 -175 203
-221 227 -21 12 -21 11 -15 -16 37 -169 27 -270 -33 -328 -88 -85 -234 2 -331
198 -108 220 -108 489 1 713 23 46 40 86 38 88 -2 2 -36 -9 -76 -25z m46
-2111 c326 -83 561 -389 561 -728 0 -218 -84 -410 -243 -557 -294 -272 -735
-270 -1029 5 -245 229 -308 583 -159 886 160 323 516 484 870 394z" />
    </g>
</svg>