<?xml version="1.0" ?><svg id="strategy" version="1.1" viewBox="0 0 6.3499999 6.3500002"
    xmlns="http://www.w3.org/2000/svg" xmlns:cc="http://creativecommons.org/ns#"
    xmlns:dc="http://purl.org/dc/elements/1.1/" xmlns:inkscape="http://www.inkscape.org/namespaces/inkscape"
    xmlns:rdf="http://www.w3.org/1999/02/22-rdf-syntax-ns#"
    xmlns:sodipodi="http://sodipodi.sourceforge.net/DTD/sodipodi-0.dtd" xmlns:svg="http://www.w3.org/2000/svg">
    <defs id="defs3165" />
    <g id="layer1">
        <path
            d="m 1.5856391,0.52916707 c -0.581482,0 -1.05647203,0.47499003 -1.05647203,1.05647203 0,0.581482 0.47499103,1.059057 1.05647203,1.059057 0.195334,0 0.376759,-0.05786 0.534439,-0.151441 l 1.7340829,1.735117 c -0.04961,0.08371 -0.08808,0.1741461 -0.113193,0.27032 H 2.6069651 c -0.118725,-0.454673 -0.531273,-0.795455 -1.021326,-0.795456 -0.581481,0 -1.05647203,0.4775761 -1.05647203,1.0590569 0,0.581482 0.47499103,1.05854 1.05647203,1.05854 0.489264,0 0.901319,-0.339303 1.020809,-0.792871 H 3.741484 c 0.1194911,0.453568 0.531546,0.792871 1.020809,0.792871 0.581482,0 1.05854,-0.477058 1.05854,-1.05854 0,-0.5814801 -0.477058,-1.0590548 -1.05854,-1.0590569 -0.1950849,1e-6 -0.3763758,0.05756 -0.5339209,0.1509249 L 2.4932551,2.1200781 c 0.04942,-0.08328 0.08801,-0.173129 0.113193,-0.26877 H 3.741484 c 0.1194461,0.453632 0.5315,0.793388 1.020809,0.793388 0.581482,-1e-6 1.05854,-0.477576 1.05854,-1.059057 0,-0.5814811 -0.477058,-1.05647203 -1.05854,-1.05647203 -0.4900088,0 -0.902557,0.338696 -1.021325,0.79287093 H 2.6069651 C 2.4881971,0.86786307 2.0756491,0.52916707 1.5856391,0.52916707 Z"
            id="path2154"
            style="color:#000000;font-style:normal;font-variant:normal;font-weight:normal;font-stretch:normal;font-size:medium;line-height:normal;font-family:sans-serif;font-variant-ligatures:normal;font-variant-position:normal;font-variant-caps:normal;font-variant-numeric:normal;font-variant-alternates:normal;font-variant-east-asian:normal;font-feature-settings:normal;font-variation-settings:normal;text-indent:0;text-align:start;text-decoration:none;text-decoration-line:none;text-decoration-style:solid;text-decoration-color:#000000;letter-spacing:normal;word-spacing:normal;text-transform:none;writing-mode:lr-tb;direction:ltr;text-orientation:mixed;dominant-baseline:auto;baseline-shift:baseline;text-anchor:start;white-space:normal;shape-padding:0;shape-margin:0;inline-size:0;clip-rule:nonzero;display:inline;overflow:visible;visibility:visible;opacity:1;isolation:auto;mix-blend-mode:normal;color-interpolation:sRGB;color-interpolation-filters:linearRGB;solid-color:#000000;solid-opacity:1;vector-effect:none;fill:#000000;fill-opacity:1;fill-rule:nonzero;stroke:none;stroke-width:0.52927;stroke-linecap:butt;stroke-linejoin:miter;stroke-miterlimit:4;stroke-dasharray:none;stroke-dashoffset:0;stroke-opacity:1;color-rendering:auto;image-rendering:auto;shape-rendering:auto;text-rendering:auto;enable-background:accumulate;stop-color:#000000;stop-opacity:1" />
    </g>
</svg>