<svg id="teachable" version="1.1" xmlns="http://www.w3.org/2000/svg" xmlns:xlink="http://www.w3.org/1999/xlink"
    viewBox="0, 0, 400,400">
    <g id="svgg">
        <path id="path0"
            d="M184.897 18.907 C 184.382 18.985,183.893 19.225,183.811 19.441 C 183.708 19.712,182.783 19.800,180.831 19.726 C 178.970 19.655,178.000 19.740,178.000 19.976 C 178.000 20.172,177.887 20.316,177.750 20.294 C 177.612 20.272,177.350 20.283,177.167 20.319 C 176.983 20.354,175.969 20.384,174.913 20.385 C 173.857 20.387,172.807 20.563,172.580 20.777 C 172.353 20.991,171.435 21.159,170.542 21.149 C 169.648 21.139,168.748 21.289,168.542 21.482 C 168.335 21.675,167.567 21.822,166.833 21.807 C 166.100 21.793,165.030 21.975,164.455 22.212 C 163.881 22.449,163.089 22.581,162.696 22.506 C 162.304 22.430,162.065 22.502,162.166 22.666 C 162.268 22.830,161.559 23.010,160.592 23.066 C 159.617 23.122,158.860 23.320,158.893 23.511 C 158.925 23.702,158.412 23.838,157.742 23.816 C 157.077 23.794,156.151 23.974,155.683 24.217 C 155.216 24.459,154.583 24.579,154.278 24.482 C 153.973 24.385,153.612 24.485,153.477 24.705 C 153.308 24.978,153.378 25.018,153.698 24.831 C 153.956 24.682,154.058 24.680,153.926 24.826 C 153.793 24.973,153.118 25.130,152.426 25.176 C 150.963 25.273,149.448 25.594,148.500 26.008 C 148.133 26.168,147.533 26.353,147.167 26.419 C 146.800 26.485,146.529 26.692,146.564 26.879 C 146.600 27.066,146.306 27.195,145.913 27.166 C 144.910 27.092,138.484 29.240,138.572 29.620 C 138.612 29.791,138.339 29.852,137.967 29.755 C 137.594 29.657,136.887 29.768,136.395 30.000 C 135.903 30.232,135.125 30.570,134.667 30.750 C 134.208 30.930,133.573 31.210,133.255 31.372 C 132.936 31.534,132.444 31.667,132.161 31.667 C 131.877 31.667,131.556 31.900,131.447 32.186 C 131.337 32.471,131.036 32.624,130.777 32.525 C 130.370 32.368,129.173 32.827,128.667 33.333 C 128.575 33.425,128.200 33.548,127.833 33.606 C 127.467 33.665,127.002 33.925,126.800 34.185 C 126.599 34.444,126.339 34.562,126.224 34.446 C 125.963 34.185,113.000 40.658,113.000 41.050 C 113.000 41.206,112.888 41.309,112.750 41.280 C 112.179 41.157,110.643 42.025,110.847 42.355 C 110.968 42.551,110.864 42.677,110.617 42.636 C 109.817 42.501,108.277 43.305,108.535 43.723 C 108.696 43.984,108.596 44.044,108.232 43.905 C 107.933 43.790,107.611 43.821,107.516 43.974 C 107.421 44.127,106.813 44.504,106.164 44.812 C 105.515 45.120,105.071 45.512,105.176 45.682 C 105.282 45.853,105.135 45.903,104.851 45.794 C 104.566 45.685,104.333 45.725,104.333 45.883 C 104.333 46.041,103.882 46.370,103.331 46.614 C 102.780 46.858,102.417 47.198,102.523 47.370 C 102.629 47.542,102.593 47.662,102.441 47.635 C 101.685 47.504,100.984 47.704,101.167 48.000 C 101.280 48.183,101.064 48.333,100.686 48.333 C 100.309 48.333,100.000 48.483,100.000 48.667 C 100.000 48.850,99.766 49.000,99.480 49.000 C 99.195 49.000,99.053 49.150,99.167 49.333 C 99.280 49.517,99.064 49.667,98.686 49.667 C 98.309 49.667,98.000 49.817,98.000 50.000 C 98.000 50.183,97.844 50.333,97.653 50.333 C 97.462 50.333,96.974 50.655,96.569 51.049 C 96.165 51.443,96.044 51.644,96.302 51.498 C 96.618 51.317,96.691 51.357,96.528 51.621 C 96.396 51.835,96.150 51.926,95.983 51.823 C 95.562 51.563,93.278 53.161,93.585 53.500 C 93.722 53.650,93.655 53.671,93.437 53.546 C 93.218 53.421,92.768 53.598,92.437 53.941 C 92.105 54.283,91.343 54.845,90.743 55.190 C 90.144 55.536,89.724 56.001,89.810 56.225 C 89.899 56.459,89.779 56.561,89.527 56.464 C 89.285 56.371,88.543 56.809,87.877 57.437 C 87.211 58.065,86.667 58.525,86.667 58.459 C 86.667 58.315,85.677 59.115,84.041 60.582 C 83.377 61.177,82.712 61.664,82.564 61.665 C 82.415 61.666,82.387 61.817,82.500 62.000 C 82.613 62.183,82.473 62.333,82.189 62.333 C 81.905 62.333,81.485 62.633,81.256 63.000 C 81.027 63.367,80.674 63.667,80.471 63.667 C 80.269 63.667,79.818 64.002,79.468 64.411 C 78.840 65.147,78.840 65.150,79.500 64.677 C 80.082 64.260,80.112 64.260,79.733 64.683 C 79.495 64.949,79.191 65.167,79.059 65.167 C 78.525 65.167,76.958 66.663,77.156 66.983 C 77.286 67.194,77.148 67.241,76.796 67.106 C 76.408 66.957,76.301 67.012,76.465 67.277 C 76.611 67.513,76.494 67.667,76.167 67.667 C 75.870 67.667,75.720 67.817,75.833 68.000 C 75.947 68.183,75.805 68.333,75.520 68.333 C 75.234 68.333,75.038 68.521,75.083 68.750 C 75.129 68.979,75.005 69.138,74.807 69.102 C 74.609 69.067,73.184 70.325,71.640 71.898 C 70.097 73.470,69.044 74.639,69.302 74.494 C 69.614 74.318,69.691 74.358,69.532 74.615 C 69.401 74.827,69.069 75.000,68.794 75.000 C 68.519 75.000,68.387 75.150,68.500 75.333 C 68.613 75.517,68.463 75.667,68.167 75.667 C 67.870 75.667,67.720 75.817,67.833 76.000 C 67.947 76.183,67.810 76.333,67.530 76.333 C 67.231 76.333,67.095 76.526,67.200 76.800 C 67.298 77.056,67.195 77.379,66.971 77.518 C 66.711 77.679,66.649 77.631,66.802 77.385 C 67.206 76.730,66.738 76.959,65.842 77.855 C 65.372 78.325,65.076 78.854,65.185 79.030 C 65.294 79.206,65.184 79.309,64.941 79.258 C 64.699 79.208,64.541 79.365,64.592 79.608 C 64.642 79.851,64.528 79.954,64.339 79.837 C 64.150 79.720,63.899 79.875,63.781 80.182 C 63.664 80.488,62.980 81.321,62.262 82.032 C 61.494 82.792,61.055 83.485,61.196 83.714 C 61.341 83.948,61.292 84.014,61.073 83.879 C 60.871 83.754,60.295 84.212,59.775 84.910 C 59.261 85.601,58.607 86.392,58.321 86.667 C 57.425 87.529,56.344 89.233,56.557 89.446 C 56.830 89.719,55.996 90.704,55.665 90.499 C 55.523 90.411,55.139 90.746,54.813 91.244 C 54.487 91.742,53.945 92.444,53.610 92.804 C 53.006 93.453,52.858 93.855,52.988 94.500 C 53.025 94.683,52.946 94.724,52.812 94.589 C 52.525 94.303,51.441 95.470,51.154 96.373 C 51.045 96.718,50.815 97.000,50.644 97.000 C 50.473 97.000,50.333 97.159,50.333 97.353 C 50.333 97.547,50.507 97.599,50.718 97.468 C 50.959 97.320,51.012 97.377,50.862 97.621 C 50.729 97.835,50.471 97.918,50.288 97.805 C 50.105 97.692,49.873 97.915,49.772 98.300 C 49.671 98.685,49.456 99.000,49.294 99.000 C 49.133 99.000,49.000 99.159,49.000 99.353 C 49.000 99.547,49.188 99.598,49.417 99.466 C 49.659 99.327,49.717 99.354,49.556 99.530 C 49.403 99.697,49.104 99.833,48.892 99.833 C 48.680 99.833,48.410 100.283,48.293 100.833 C 48.175 101.383,48.055 101.608,48.026 101.333 C 47.996 101.044,47.748 101.255,47.438 101.833 C 47.144 102.383,46.812 102.908,46.702 103.000 C 46.189 103.424,45.668 104.732,45.877 105.070 C 46.027 105.314,45.922 105.375,45.578 105.243 C 45.184 105.091,45.078 105.206,45.170 105.686 C 45.241 106.053,45.111 106.333,44.871 106.333 C 44.288 106.333,43.528 107.839,43.849 108.358 C 44.031 108.653,43.949 108.718,43.578 108.576 C 43.184 108.425,43.078 108.540,43.170 109.019 C 43.247 109.419,43.111 109.667,42.814 109.667 C 42.550 109.667,42.333 109.826,42.333 110.020 C 42.333 110.214,42.521 110.276,42.750 110.157 C 42.979 110.039,42.792 110.252,42.333 110.630 C 41.875 111.009,41.650 111.326,41.833 111.336 C 42.017 111.346,41.904 111.506,41.583 111.693 C 41.262 111.880,41.000 112.251,41.000 112.517 C 41.000 112.782,40.850 113.000,40.667 113.000 C 40.483 113.000,40.333 113.300,40.333 113.667 C 40.333 114.033,40.183 114.333,40.000 114.333 C 39.817 114.333,39.667 114.633,39.667 115.000 C 39.667 115.367,39.517 115.667,39.333 115.667 C 39.150 115.667,39.000 115.967,39.000 116.333 C 39.000 116.700,38.850 117.000,38.667 117.000 C 38.483 117.000,38.333 117.300,38.333 117.667 C 38.333 118.033,38.183 118.333,38.000 118.333 C 37.817 118.333,37.667 118.633,37.667 119.000 C 37.667 119.367,37.517 119.667,37.333 119.667 C 37.150 119.667,37.000 119.967,37.000 120.333 C 37.000 120.700,36.850 121.000,36.667 121.000 C 36.483 121.000,36.333 121.300,36.333 121.667 C 36.333 122.033,36.183 122.333,36.000 122.333 C 35.817 122.333,35.667 122.492,35.667 122.686 C 35.667 122.880,35.854 122.944,36.083 122.828 C 36.312 122.711,36.163 122.914,35.750 123.278 C 35.338 123.642,35.000 124.170,35.000 124.450 C 35.000 124.731,34.837 125.061,34.638 125.185 C 34.438 125.308,34.349 125.692,34.440 126.038 C 34.530 126.384,34.483 126.593,34.335 126.501 C 34.069 126.337,33.241 128.092,33.188 128.931 C 33.173 129.167,32.953 129.490,32.699 129.647 C 32.429 129.814,32.314 130.222,32.421 130.633 C 32.522 131.019,32.484 131.260,32.337 131.169 C 32.020 130.973,31.667 131.787,31.667 132.714 C 31.667 133.076,31.517 133.280,31.333 133.167 C 30.899 132.898,30.901 133.750,31.336 134.264 C 31.521 134.482,31.572 134.589,31.450 134.500 C 31.080 134.232,30.333 135.040,30.333 135.707 C 30.333 136.052,30.190 136.333,30.014 136.333 C 29.838 136.333,29.737 136.864,29.788 137.513 C 29.856 138.379,29.764 138.647,29.440 138.523 C 29.151 138.412,29.000 138.629,29.000 139.157 C 29.000 139.599,28.850 140.053,28.667 140.167 C 28.483 140.280,28.333 140.730,28.333 141.167 C 28.333 141.603,28.183 142.053,28.000 142.167 C 27.817 142.280,27.667 142.730,27.667 143.167 C 27.667 143.603,27.502 144.062,27.301 144.186 C 27.101 144.311,26.993 144.902,27.063 145.502 C 27.155 146.289,27.072 146.545,26.762 146.426 C 26.471 146.315,26.333 146.586,26.333 147.270 C 26.333 147.824,26.146 148.341,25.917 148.418 C 25.599 148.525,25.619 148.705,26.000 149.176 C 26.275 149.516,26.335 149.696,26.133 149.575 C 25.716 149.325,24.830 151.657,25.069 152.375 C 25.152 152.624,25.021 153.027,24.777 153.271 C 24.533 153.515,24.333 153.882,24.333 154.088 C 24.333 154.293,24.571 154.170,24.861 153.814 C 25.152 153.458,25.014 153.876,24.555 154.743 C 24.021 155.753,23.754 156.739,23.813 157.484 C 23.864 158.124,23.793 158.578,23.654 158.492 C 23.297 158.272,23.000 159.196,23.000 160.527 C 23.000 161.154,22.833 161.667,22.628 161.667 C 22.402 161.667,22.324 162.025,22.430 162.577 C 22.525 163.078,22.410 163.866,22.173 164.327 C 21.936 164.789,21.752 165.794,21.765 166.560 C 21.777 167.326,21.607 168.170,21.387 168.435 C 21.152 168.718,21.041 169.565,21.117 170.486 C 21.206 171.544,21.111 172.106,20.827 172.215 C 20.556 172.319,20.380 173.173,20.335 174.605 C 20.233 177.846,20.215 178.000,19.943 178.000 C 19.807 178.000,19.699 179.223,19.702 180.718 C 19.706 182.606,19.574 183.518,19.271 183.706 C 18.626 184.104,18.626 215.897,19.271 216.295 C 19.574 216.482,19.706 217.394,19.702 219.282 C 19.699 220.777,19.807 222.000,19.943 222.000 C 20.215 222.000,20.233 222.154,20.335 225.395 C 20.380 226.827,20.556 227.681,20.827 227.785 C 21.111 227.894,21.206 228.456,21.117 229.514 C 21.041 230.435,21.152 231.282,21.387 231.565 C 21.607 231.830,21.777 232.674,21.765 233.440 C 21.752 234.206,21.936 235.211,22.173 235.673 C 22.410 236.134,22.525 236.922,22.430 237.423 C 22.324 237.975,22.402 238.333,22.628 238.333 C 22.833 238.333,23.000 238.846,23.000 239.473 C 23.000 240.804,23.297 241.728,23.654 241.508 C 23.793 241.422,23.864 241.876,23.813 242.516 C 23.754 243.261,24.021 244.247,24.555 245.257 C 25.014 246.124,25.152 246.542,24.861 246.186 C 24.571 245.830,24.333 245.707,24.333 245.912 C 24.333 246.118,24.533 246.485,24.777 246.729 C 25.021 246.973,25.152 247.376,25.069 247.625 C 24.830 248.343,25.716 250.675,26.133 250.425 C 26.335 250.304,26.275 250.484,26.000 250.824 C 25.619 251.295,25.599 251.475,25.917 251.582 C 26.146 251.659,26.333 252.176,26.333 252.730 C 26.333 253.414,26.471 253.685,26.762 253.574 C 27.072 253.455,27.155 253.711,27.063 254.498 C 26.993 255.098,27.101 255.689,27.301 255.814 C 27.502 255.938,27.667 256.397,27.667 256.833 C 27.667 257.270,27.817 257.720,28.000 257.833 C 28.183 257.947,28.333 258.397,28.333 258.833 C 28.333 259.270,28.483 259.720,28.667 259.833 C 28.850 259.947,29.000 260.401,29.000 260.843 C 29.000 261.371,29.151 261.588,29.440 261.477 C 29.764 261.353,29.856 261.621,29.788 262.487 C 29.737 263.136,29.838 263.667,30.014 263.667 C 30.190 263.667,30.333 263.948,30.333 264.293 C 30.333 264.960,31.080 265.768,31.450 265.500 C 31.572 265.411,31.521 265.518,31.336 265.736 C 30.901 266.250,30.899 267.102,31.333 266.833 C 31.517 266.720,31.667 266.924,31.667 267.286 C 31.667 268.213,32.020 269.027,32.337 268.831 C 32.484 268.740,32.522 268.981,32.421 269.367 C 32.314 269.778,32.429 270.186,32.699 270.353 C 32.953 270.510,33.173 270.833,33.188 271.069 C 33.241 271.908,34.069 273.663,34.335 273.499 C 34.483 273.407,34.530 273.616,34.440 273.962 C 34.349 274.308,34.438 274.692,34.638 274.815 C 34.837 274.939,35.000 275.269,35.000 275.550 C 35.000 275.830,35.337 276.358,35.750 276.722 C 36.162 277.086,36.313 277.289,36.083 277.172 C 35.854 277.056,35.667 277.120,35.667 277.314 C 35.667 277.508,35.817 277.667,36.000 277.667 C 36.183 277.667,36.333 277.967,36.333 278.333 C 36.333 278.700,36.483 279.000,36.667 279.000 C 36.850 279.000,37.000 279.300,37.000 279.667 C 37.000 280.033,37.150 280.333,37.333 280.333 C 37.517 280.333,37.667 280.633,37.667 281.000 C 37.667 281.367,37.817 281.667,38.000 281.667 C 38.183 281.667,38.333 281.967,38.333 282.333 C 38.333 282.700,38.483 283.000,38.667 283.000 C 38.850 283.000,39.000 283.300,39.000 283.667 C 39.000 284.033,39.150 284.333,39.333 284.333 C 39.517 284.333,39.667 284.633,39.667 285.000 C 39.667 285.367,39.817 285.667,40.000 285.667 C 40.183 285.667,40.333 285.967,40.333 286.333 C 40.333 286.700,40.483 287.000,40.667 287.000 C 40.850 287.000,41.000 287.218,41.000 287.483 C 41.000 287.749,41.262 288.120,41.583 288.307 C 41.904 288.494,42.017 288.654,41.833 288.664 C 41.650 288.674,41.875 288.991,42.333 289.370 C 42.792 289.748,42.979 289.961,42.750 289.843 C 42.521 289.724,42.333 289.786,42.333 289.980 C 42.333 290.174,42.550 290.333,42.814 290.333 C 43.111 290.333,43.247 290.581,43.170 290.981 C 43.078 291.460,43.184 291.575,43.578 291.424 C 43.949 291.282,44.031 291.347,43.849 291.642 C 43.528 292.161,44.288 293.667,44.871 293.667 C 45.111 293.667,45.241 293.947,45.170 294.314 C 45.078 294.794,45.184 294.909,45.578 294.757 C 45.922 294.625,46.027 294.686,45.877 294.930 C 45.668 295.268,46.189 296.576,46.702 297.000 C 46.812 297.092,47.144 297.617,47.438 298.167 C 47.748 298.745,47.996 298.956,48.026 298.667 C 48.055 298.392,48.175 298.617,48.293 299.167 C 48.410 299.717,48.680 300.167,48.892 300.167 C 49.104 300.167,49.403 300.303,49.556 300.470 C 49.717 300.646,49.659 300.673,49.417 300.534 C 49.188 300.402,49.000 300.453,49.000 300.647 C 49.000 300.841,49.133 301.000,49.294 301.000 C 49.456 301.000,49.671 301.315,49.772 301.700 C 49.873 302.085,50.105 302.308,50.288 302.195 C 50.471 302.082,50.729 302.165,50.862 302.379 C 51.012 302.623,50.959 302.680,50.718 302.532 C 50.507 302.401,50.333 302.453,50.333 302.647 C 50.333 302.841,50.473 303.000,50.644 303.000 C 50.815 303.000,51.045 303.282,51.154 303.627 C 51.441 304.530,52.525 305.697,52.812 305.411 C 52.946 305.276,53.025 305.317,52.988 305.500 C 52.858 306.145,53.006 306.547,53.610 307.196 C 53.945 307.556,54.487 308.258,54.813 308.756 C 55.139 309.254,55.523 309.589,55.665 309.501 C 55.996 309.296,56.830 310.281,56.557 310.554 C 56.344 310.767,57.425 312.471,58.321 313.333 C 58.607 313.608,59.261 314.399,59.775 315.090 C 60.295 315.788,60.871 316.246,61.073 316.121 C 61.292 315.986,61.341 316.052,61.196 316.286 C 61.055 316.515,61.494 317.208,62.262 317.968 C 62.980 318.679,63.664 319.512,63.781 319.818 C 63.899 320.125,64.150 320.280,64.339 320.163 C 64.528 320.046,64.642 320.149,64.592 320.392 C 64.541 320.635,64.699 320.792,64.941 320.742 C 65.184 320.691,65.294 320.794,65.185 320.970 C 65.076 321.146,65.372 321.675,65.842 322.145 C 66.738 323.041,67.206 323.270,66.802 322.615 C 66.649 322.369,66.711 322.321,66.971 322.482 C 67.195 322.621,67.298 322.944,67.200 323.200 C 67.095 323.474,67.231 323.667,67.530 323.667 C 67.810 323.667,67.947 323.817,67.833 324.000 C 67.720 324.183,67.870 324.333,68.167 324.333 C 68.463 324.333,68.613 324.483,68.500 324.667 C 68.387 324.850,68.519 325.000,68.794 325.000 C 69.069 325.000,69.401 325.173,69.532 325.385 C 69.691 325.642,69.614 325.682,69.302 325.506 C 69.044 325.361,70.097 326.530,71.640 328.102 C 73.184 329.675,74.609 330.933,74.807 330.898 C 75.005 330.862,75.129 331.021,75.083 331.250 C 75.037 331.479,75.234 331.667,75.520 331.667 C 75.805 331.667,75.947 331.817,75.833 332.000 C 75.720 332.183,75.870 332.333,76.167 332.333 C 76.494 332.333,76.611 332.487,76.465 332.723 C 76.301 332.988,76.408 333.043,76.796 332.894 C 77.148 332.759,77.286 332.806,77.156 333.017 C 76.958 333.337,78.525 334.833,79.059 334.833 C 79.191 334.833,79.495 335.051,79.733 335.317 C 80.112 335.740,80.082 335.740,79.500 335.323 C 78.840 334.850,78.840 334.853,79.468 335.589 C 79.818 335.998,80.269 336.333,80.471 336.333 C 80.674 336.333,81.027 336.633,81.256 337.000 C 81.485 337.367,81.905 337.667,82.189 337.667 C 82.473 337.667,82.613 337.817,82.500 338.000 C 82.387 338.183,82.415 338.334,82.564 338.335 C 82.712 338.336,83.377 338.823,84.041 339.418 C 85.677 340.885,86.667 341.685,86.667 341.541 C 86.667 341.475,87.211 341.935,87.877 342.563 C 88.543 343.191,89.285 343.629,89.527 343.536 C 89.779 343.439,89.899 343.541,89.810 343.775 C 89.724 343.999,90.144 344.464,90.743 344.810 C 91.343 345.155,92.105 345.717,92.437 346.059 C 92.768 346.402,93.218 346.579,93.437 346.454 C 93.655 346.329,93.722 346.350,93.585 346.500 C 93.278 346.839,95.562 348.437,95.983 348.177 C 96.150 348.074,96.396 348.165,96.528 348.379 C 96.691 348.643,96.618 348.683,96.302 348.502 C 96.044 348.356,96.165 348.557,96.569 348.951 C 96.974 349.345,97.462 349.667,97.653 349.667 C 97.844 349.667,98.000 349.817,98.000 350.000 C 98.000 350.183,98.309 350.333,98.686 350.333 C 99.064 350.333,99.280 350.483,99.167 350.667 C 99.053 350.850,99.195 351.000,99.480 351.000 C 99.766 351.000,100.000 351.150,100.000 351.333 C 100.000 351.517,100.309 351.667,100.686 351.667 C 101.064 351.667,101.280 351.817,101.167 352.000 C 101.053 352.183,101.195 352.333,101.480 352.333 C 101.766 352.333,102.000 352.455,102.000 352.604 C 102.000 352.754,102.525 353.082,103.167 353.333 C 103.808 353.585,104.333 353.929,104.333 354.098 C 104.333 354.267,104.566 354.315,104.851 354.206 C 105.135 354.097,105.282 354.147,105.176 354.318 C 105.071 354.488,105.515 354.880,106.164 355.188 C 106.813 355.496,107.421 355.873,107.516 356.026 C 107.611 356.179,107.933 356.210,108.232 356.095 C 108.596 355.956,108.696 356.016,108.535 356.277 C 108.277 356.695,109.817 357.499,110.617 357.364 C 110.864 357.323,110.968 357.449,110.847 357.645 C 110.643 357.975,112.179 358.843,112.750 358.720 C 112.888 358.691,113.000 358.794,113.000 358.950 C 113.000 359.342,125.963 365.815,126.224 365.554 C 126.339 365.438,126.602 365.573,126.807 365.853 C 127.012 366.134,127.514 366.388,127.923 366.419 C 128.332 366.450,128.667 366.576,128.667 366.699 C 128.667 366.919,129.812 367.390,130.538 367.470 C 130.742 367.492,131.153 367.712,131.451 367.959 C 131.748 368.206,132.206 368.326,132.468 368.225 C 132.730 368.124,133.028 368.258,133.129 368.521 C 133.230 368.784,133.544 369.000,133.827 369.000 C 134.111 369.000,134.603 369.132,134.921 369.294 C 136.704 370.201,137.356 370.405,137.967 370.245 C 138.339 370.148,138.612 370.209,138.572 370.380 C 138.484 370.760,144.910 372.908,145.913 372.834 C 146.306 372.805,146.600 372.934,146.564 373.121 C 146.529 373.308,146.800 373.515,147.167 373.581 C 147.533 373.647,148.133 373.832,148.500 373.992 C 149.448 374.406,150.963 374.727,152.426 374.824 C 153.118 374.870,153.793 375.027,153.926 375.174 C 154.058 375.320,153.956 375.318,153.698 375.169 C 153.374 374.980,153.307 375.022,153.482 375.305 C 153.621 375.529,153.945 375.631,154.203 375.532 C 154.461 375.433,155.084 375.525,155.586 375.736 C 156.089 375.948,157.057 376.138,157.737 376.158 C 158.417 376.179,159.092 376.326,159.237 376.485 C 159.384 376.646,159.293 376.654,159.032 376.502 C 158.708 376.314,158.641 376.355,158.814 376.635 C 158.951 376.857,159.387 377.014,159.782 376.983 C 161.294 376.864,162.365 377.013,162.177 377.316 C 162.069 377.491,162.301 377.570,162.696 377.494 C 163.089 377.419,163.881 377.551,164.455 377.788 C 165.030 378.025,166.100 378.207,166.833 378.193 C 167.567 378.178,168.335 378.325,168.542 378.518 C 168.748 378.711,169.648 378.861,170.542 378.851 C 171.435 378.841,172.353 379.009,172.580 379.223 C 172.807 379.437,173.857 379.613,174.913 379.615 C 175.969 379.616,176.983 379.646,177.167 379.681 C 177.350 379.717,177.612 379.728,177.750 379.706 C 177.887 379.684,178.000 379.823,178.000 380.013 C 178.000 380.233,179.006 380.325,180.750 380.263 C 182.884 380.188,183.587 380.279,183.890 380.667 C 184.226 381.099,186.422 381.167,200.000 381.167 C 213.578 381.167,215.774 381.099,216.110 380.667 C 216.413 380.279,217.116 380.188,219.250 380.263 C 220.994 380.325,222.000 380.233,222.000 380.013 C 222.000 379.823,222.112 379.684,222.250 379.706 C 222.387 379.728,222.650 379.717,222.833 379.681 C 223.017 379.646,224.031 379.616,225.087 379.615 C 226.143 379.613,227.193 379.437,227.420 379.223 C 227.647 379.009,228.565 378.841,229.458 378.851 C 230.352 378.861,231.252 378.711,231.458 378.518 C 231.665 378.325,232.433 378.178,233.167 378.193 C 233.900 378.207,234.970 378.025,235.545 377.788 C 236.119 377.551,236.911 377.419,237.304 377.494 C 237.699 377.570,237.931 377.491,237.823 377.316 C 237.635 377.013,238.706 376.864,240.218 376.983 C 240.613 377.014,241.049 376.857,241.186 376.635 C 241.359 376.355,241.292 376.314,240.968 376.502 C 240.707 376.654,240.616 376.646,240.763 376.485 C 240.908 376.326,241.583 376.179,242.263 376.158 C 242.943 376.138,243.911 375.948,244.414 375.736 C 244.916 375.525,245.539 375.433,245.797 375.532 C 246.055 375.631,246.379 375.529,246.518 375.305 C 246.693 375.022,246.626 374.980,246.302 375.169 C 246.044 375.318,245.942 375.320,246.074 375.174 C 246.207 375.027,246.882 374.870,247.574 374.824 C 249.037 374.727,250.552 374.406,251.500 373.992 C 251.867 373.832,252.467 373.647,252.833 373.581 C 253.200 373.515,253.471 373.308,253.436 373.121 C 253.400 372.934,253.694 372.805,254.087 372.834 C 255.090 372.908,261.516 370.760,261.428 370.380 C 261.388 370.209,261.661 370.148,262.033 370.245 C 262.406 370.343,263.076 370.252,263.522 370.045 C 263.968 369.837,264.746 369.499,265.250 369.294 C 265.754 369.090,266.427 368.790,266.745 368.628 C 267.064 368.466,267.556 368.333,267.839 368.333 C 268.123 368.333,268.444 368.100,268.553 367.814 C 268.663 367.529,268.964 367.376,269.223 367.475 C 269.630 367.632,270.827 367.173,271.333 366.667 C 271.425 366.575,271.800 366.452,272.167 366.394 C 272.533 366.335,272.998 366.075,273.200 365.815 C 273.401 365.556,273.661 365.438,273.776 365.554 C 274.037 365.815,287.000 359.342,287.000 358.950 C 287.000 358.794,287.112 358.691,287.250 358.720 C 287.821 358.843,289.357 357.975,289.153 357.645 C 289.032 357.449,289.136 357.323,289.383 357.364 C 290.183 357.499,291.723 356.695,291.465 356.277 C 291.304 356.016,291.404 355.956,291.768 356.095 C 292.067 356.210,292.389 356.179,292.484 356.026 C 292.579 355.873,293.187 355.496,293.836 355.188 C 294.485 354.880,294.929 354.488,294.824 354.318 C 294.718 354.147,294.865 354.097,295.149 354.206 C 295.434 354.315,295.667 354.275,295.667 354.117 C 295.667 353.959,296.118 353.630,296.669 353.386 C 297.220 353.142,297.583 352.802,297.477 352.630 C 297.371 352.458,297.407 352.338,297.559 352.365 C 298.315 352.496,299.016 352.296,298.833 352.000 C 298.720 351.817,298.936 351.667,299.314 351.667 C 299.691 351.667,300.000 351.517,300.000 351.333 C 300.000 351.150,300.234 351.000,300.520 351.000 C 300.805 351.000,300.947 350.850,300.833 350.667 C 300.720 350.483,300.936 350.333,301.314 350.333 C 301.691 350.333,302.000 350.183,302.000 350.000 C 302.000 349.817,302.156 349.667,302.347 349.667 C 302.538 349.667,303.026 349.345,303.431 348.951 C 303.835 348.557,303.956 348.356,303.698 348.502 C 303.382 348.683,303.309 348.643,303.472 348.379 C 303.604 348.165,303.850 348.074,304.017 348.177 C 304.438 348.437,306.722 346.839,306.415 346.500 C 306.278 346.350,306.345 346.329,306.563 346.454 C 306.782 346.579,307.232 346.402,307.563 346.059 C 307.895 345.717,308.657 345.155,309.257 344.810 C 309.856 344.464,310.276 343.999,310.190 343.775 C 310.101 343.541,310.221 343.439,310.473 343.536 C 310.715 343.629,311.457 343.191,312.123 342.563 C 312.789 341.935,313.333 341.475,313.333 341.541 C 313.333 341.670,314.439 340.806,315.304 340.000 C 315.599 339.725,316.259 339.172,316.771 338.772 C 317.282 338.371,317.693 337.921,317.684 337.772 C 317.674 337.622,317.829 337.500,318.027 337.500 C 318.225 337.500,318.579 337.237,318.814 336.917 C 319.048 336.596,319.388 336.333,319.568 336.333 C 319.749 336.333,320.182 335.998,320.532 335.589 C 321.160 334.852,321.160 334.850,320.500 335.339 C 319.886 335.795,319.868 335.788,320.282 335.261 C 320.529 334.946,320.832 334.721,320.955 334.761 C 321.384 334.900,323.055 333.358,322.844 333.017 C 322.714 332.806,322.852 332.759,323.204 332.894 C 323.592 333.043,323.699 332.988,323.535 332.723 C 323.389 332.487,323.506 332.333,323.833 332.333 C 324.130 332.333,324.280 332.183,324.167 332.000 C 324.053 331.817,324.195 331.667,324.480 331.667 C 324.766 331.667,324.963 331.479,324.917 331.250 C 324.871 331.021,324.995 330.862,325.193 330.898 C 325.391 330.933,326.816 329.675,328.360 328.102 C 329.903 326.530,330.956 325.361,330.698 325.506 C 330.386 325.682,330.309 325.642,330.468 325.385 C 330.599 325.173,330.931 325.000,331.206 325.000 C 331.481 325.000,331.613 324.850,331.500 324.667 C 331.387 324.483,331.537 324.333,331.833 324.333 C 332.130 324.333,332.280 324.183,332.167 324.000 C 332.053 323.817,332.190 323.667,332.470 323.667 C 332.769 323.667,332.905 323.474,332.800 323.200 C 332.702 322.944,332.805 322.621,333.029 322.482 C 333.289 322.321,333.351 322.369,333.198 322.615 C 332.794 323.270,333.262 323.041,334.158 322.145 C 334.628 321.675,334.924 321.146,334.815 320.970 C 334.706 320.794,334.816 320.691,335.059 320.742 C 335.301 320.792,335.459 320.635,335.408 320.392 C 335.358 320.149,335.472 320.046,335.661 320.163 C 335.850 320.280,336.101 320.125,336.219 319.818 C 336.336 319.512,337.020 318.679,337.738 317.968 C 338.506 317.208,338.945 316.515,338.804 316.286 C 338.659 316.052,338.708 315.986,338.927 316.121 C 339.129 316.246,339.705 315.788,340.225 315.090 C 340.739 314.399,341.393 313.608,341.679 313.333 C 342.575 312.471,343.656 310.767,343.443 310.554 C 343.170 310.281,344.004 309.296,344.335 309.501 C 344.477 309.589,344.861 309.254,345.187 308.756 C 345.513 308.258,346.055 307.556,346.390 307.196 C 346.994 306.547,347.142 306.145,347.012 305.500 C 346.975 305.317,347.054 305.276,347.188 305.411 C 347.475 305.697,348.559 304.530,348.846 303.627 C 348.955 303.282,349.185 303.000,349.356 303.000 C 349.527 303.000,349.667 302.841,349.667 302.647 C 349.667 302.453,349.493 302.401,349.282 302.532 C 349.041 302.680,348.988 302.623,349.138 302.379 C 349.271 302.165,349.529 302.082,349.712 302.195 C 349.895 302.308,350.127 302.085,350.228 301.700 C 350.329 301.315,350.544 301.000,350.706 301.000 C 350.867 301.000,351.000 300.841,351.000 300.647 C 351.000 300.453,350.813 300.402,350.583 300.534 C 350.341 300.673,350.283 300.646,350.444 300.470 C 350.597 300.303,350.896 300.167,351.108 300.167 C 351.320 300.167,351.590 299.717,351.707 299.167 C 351.825 298.617,351.945 298.392,351.974 298.667 C 352.004 298.956,352.252 298.745,352.562 298.167 C 352.856 297.617,353.188 297.092,353.298 297.000 C 353.811 296.576,354.332 295.268,354.123 294.930 C 353.973 294.686,354.078 294.625,354.422 294.757 C 354.816 294.909,354.922 294.794,354.830 294.314 C 354.759 293.947,354.889 293.667,355.129 293.667 C 355.712 293.667,356.472 292.161,356.151 291.642 C 355.969 291.347,356.051 291.282,356.422 291.424 C 356.816 291.575,356.922 291.460,356.830 290.981 C 356.753 290.581,356.889 290.333,357.186 290.333 C 357.450 290.333,357.667 290.174,357.667 289.980 C 357.667 289.786,357.479 289.724,357.250 289.843 C 357.021 289.961,357.208 289.748,357.667 289.370 C 358.125 288.991,358.350 288.674,358.167 288.664 C 357.983 288.654,358.096 288.494,358.417 288.307 C 358.738 288.120,359.000 287.749,359.000 287.483 C 359.000 287.218,359.150 287.000,359.333 287.000 C 359.517 287.000,359.667 286.700,359.667 286.333 C 359.667 285.967,359.817 285.667,360.000 285.667 C 360.183 285.667,360.333 285.367,360.333 285.000 C 360.333 284.633,360.483 284.333,360.667 284.333 C 360.850 284.333,361.000 284.033,361.000 283.667 C 361.000 283.300,361.150 283.000,361.333 283.000 C 361.517 283.000,361.667 282.700,361.667 282.333 C 361.667 281.967,361.817 281.667,362.000 281.667 C 362.183 281.667,362.333 281.367,362.333 281.000 C 362.333 280.633,362.483 280.333,362.667 280.333 C 362.850 280.333,363.000 280.033,363.000 279.667 C 363.000 279.300,363.150 279.000,363.333 279.000 C 363.517 279.000,363.667 278.700,363.667 278.333 C 363.667 277.967,363.817 277.667,364.000 277.667 C 364.183 277.667,364.333 277.508,364.333 277.314 C 364.333 277.120,364.146 277.056,363.917 277.172 C 363.688 277.289,363.837 277.086,364.250 276.722 C 364.662 276.358,365.000 275.830,365.000 275.550 C 365.000 275.269,365.163 274.939,365.362 274.815 C 365.562 274.692,365.647 274.294,365.552 273.929 C 365.456 273.565,365.473 273.362,365.588 273.477 C 365.866 273.755,367.036 271.328,366.805 270.954 C 366.706 270.793,366.859 270.572,367.146 270.462 C 367.432 270.352,367.667 269.912,367.667 269.484 C 367.667 269.056,367.817 268.613,368.000 268.500 C 368.183 268.387,368.333 268.003,368.333 267.647 C 368.333 267.291,368.483 267.000,368.667 267.000 C 368.850 267.000,369.000 266.634,369.000 266.186 C 369.000 265.739,369.150 265.280,369.333 265.167 C 369.517 265.053,369.667 264.670,369.667 264.314 C 369.667 263.958,369.810 263.667,369.986 263.667 C 370.162 263.667,370.263 263.136,370.212 262.487 C 370.144 261.621,370.236 261.353,370.560 261.477 C 370.849 261.588,371.000 261.371,371.000 260.843 C 371.000 260.401,371.150 259.947,371.333 259.833 C 371.517 259.720,371.667 259.270,371.667 258.833 C 371.667 258.397,371.817 257.947,372.000 257.833 C 372.183 257.720,372.333 257.270,372.333 256.833 C 372.333 256.397,372.498 255.938,372.699 255.814 C 372.899 255.689,373.007 255.098,372.937 254.498 C 372.845 253.711,372.928 253.455,373.238 253.574 C 373.529 253.685,373.667 253.414,373.667 252.730 C 373.667 252.176,373.854 251.659,374.083 251.582 C 374.401 251.475,374.381 251.295,374.000 250.824 C 373.725 250.484,373.665 250.304,373.867 250.425 C 374.284 250.675,375.170 248.343,374.931 247.625 C 374.848 247.376,374.979 246.973,375.223 246.729 C 375.467 246.485,375.667 246.118,375.667 245.912 C 375.667 245.707,375.429 245.830,375.139 246.186 C 374.848 246.542,374.986 246.124,375.445 245.257 C 375.979 244.247,376.246 243.261,376.187 242.516 C 376.136 241.876,376.219 241.429,376.371 241.523 C 376.661 241.703,376.925 240.721,376.951 239.363 C 376.960 238.921,377.146 238.449,377.364 238.314 C 377.590 238.175,377.677 237.742,377.566 237.316 C 377.458 236.903,377.569 236.175,377.814 235.699 C 378.058 235.223,378.248 234.206,378.235 233.440 C 378.223 232.674,378.393 231.830,378.613 231.565 C 378.848 231.282,378.959 230.435,378.883 229.514 C 378.794 228.456,378.889 227.894,379.173 227.785 C 379.444 227.681,379.620 226.827,379.665 225.395 C 379.767 222.154,379.785 222.000,380.057 222.000 C 380.193 222.000,380.301 220.777,380.298 219.282 C 380.294 217.394,380.426 216.482,380.729 216.295 C 381.080 216.078,381.167 212.862,381.167 200.000 C 381.167 187.138,381.080 183.922,380.729 183.705 C 380.426 183.518,380.294 182.606,380.298 180.718 C 380.301 179.223,380.193 178.000,380.057 178.000 C 379.785 178.000,379.767 177.846,379.665 174.605 C 379.620 173.173,379.444 172.319,379.173 172.215 C 378.889 172.106,378.794 171.544,378.883 170.486 C 378.959 169.565,378.848 168.718,378.613 168.435 C 378.393 168.170,378.223 167.326,378.235 166.560 C 378.248 165.794,378.058 164.777,377.814 164.301 C 377.569 163.825,377.458 163.097,377.566 162.684 C 377.677 162.258,377.590 161.825,377.364 161.686 C 377.146 161.551,376.960 161.079,376.951 160.637 C 376.925 159.279,376.661 158.297,376.371 158.477 C 376.219 158.571,376.136 158.124,376.187 157.484 C 376.246 156.739,375.979 155.753,375.445 154.743 C 374.986 153.876,374.848 153.458,375.139 153.814 C 375.429 154.170,375.667 154.293,375.667 154.088 C 375.667 153.882,375.467 153.515,375.223 153.271 C 374.979 153.027,374.848 152.624,374.931 152.375 C 375.170 151.657,374.284 149.325,373.867 149.575 C 373.665 149.696,373.725 149.516,374.000 149.176 C 374.381 148.705,374.401 148.525,374.083 148.418 C 373.854 148.341,373.667 147.824,373.667 147.270 C 373.667 146.586,373.529 146.315,373.238 146.426 C 372.928 146.545,372.845 146.289,372.937 145.502 C 373.007 144.902,372.899 144.311,372.699 144.186 C 372.498 144.062,372.333 143.603,372.333 143.167 C 372.333 142.730,372.183 142.280,372.000 142.167 C 371.817 142.053,371.667 141.603,371.667 141.167 C 371.667 140.730,371.517 140.280,371.333 140.167 C 371.150 140.053,371.000 139.599,371.000 139.157 C 371.000 138.629,370.849 138.412,370.560 138.523 C 370.236 138.647,370.144 138.379,370.212 137.513 C 370.263 136.864,370.162 136.333,369.986 136.333 C 369.810 136.333,369.667 136.052,369.667 135.707 C 369.667 135.040,368.920 134.232,368.550 134.500 C 368.428 134.589,368.479 134.482,368.664 134.264 C 369.099 133.750,369.101 132.898,368.667 133.167 C 368.478 133.283,368.333 133.010,368.333 132.539 C 368.333 132.081,368.183 131.613,368.000 131.500 C 367.817 131.387,367.667 130.944,367.667 130.516 C 367.667 130.088,367.432 129.648,367.146 129.538 C 366.859 129.428,366.706 129.207,366.805 129.046 C 367.036 128.672,365.866 126.245,365.588 126.523 C 365.473 126.638,365.456 126.435,365.552 126.071 C 365.647 125.706,365.562 125.308,365.362 125.185 C 365.163 125.061,365.000 124.731,365.000 124.450 C 365.000 124.170,364.662 123.642,364.250 123.278 C 363.837 122.914,363.688 122.711,363.917 122.828 C 364.146 122.944,364.333 122.880,364.333 122.686 C 364.333 122.492,364.183 122.333,364.000 122.333 C 363.817 122.333,363.667 122.033,363.667 121.667 C 363.667 121.300,363.517 121.000,363.333 121.000 C 363.150 121.000,363.000 120.700,363.000 120.333 C 363.000 119.967,362.850 119.667,362.667 119.667 C 362.483 119.667,362.333 119.367,362.333 119.000 C 362.333 118.633,362.183 118.333,362.000 118.333 C 361.817 118.333,361.667 118.033,361.667 117.667 C 361.667 117.300,361.517 117.000,361.333 117.000 C 361.150 117.000,361.000 116.700,361.000 116.333 C 361.000 115.967,360.850 115.667,360.667 115.667 C 360.483 115.667,360.333 115.367,360.333 115.000 C 360.333 114.633,360.183 114.333,360.000 114.333 C 359.817 114.333,359.667 114.033,359.667 113.667 C 359.667 113.300,359.517 113.000,359.333 113.000 C 359.150 113.000,359.000 112.782,359.000 112.517 C 359.000 112.251,358.738 111.880,358.417 111.693 C 358.096 111.506,357.983 111.346,358.167 111.336 C 358.350 111.326,358.125 111.009,357.667 110.630 C 357.208 110.252,357.021 110.039,357.250 110.157 C 357.479 110.276,357.667 110.214,357.667 110.020 C 357.667 109.826,357.450 109.667,357.186 109.667 C 356.889 109.667,356.753 109.419,356.830 109.019 C 356.922 108.540,356.816 108.425,356.422 108.576 C 356.051 108.718,355.969 108.653,356.151 108.358 C 356.472 107.839,355.712 106.333,355.129 106.333 C 354.889 106.333,354.759 106.053,354.830 105.686 C 354.922 105.206,354.816 105.091,354.422 105.243 C 354.078 105.375,353.973 105.314,354.123 105.070 C 354.332 104.732,353.811 103.424,353.298 103.000 C 353.188 102.908,352.856 102.383,352.562 101.833 C 352.252 101.255,352.004 101.044,351.974 101.333 C 351.945 101.608,351.825 101.383,351.707 100.833 C 351.590 100.283,351.320 99.833,351.108 99.833 C 350.896 99.833,350.597 99.697,350.444 99.530 C 350.283 99.354,350.341 99.327,350.583 99.466 C 350.813 99.598,351.000 99.547,351.000 99.353 C 351.000 99.159,350.867 99.000,350.706 99.000 C 350.544 99.000,350.329 98.685,350.228 98.300 C 350.127 97.915,349.895 97.692,349.712 97.805 C 349.529 97.918,349.271 97.835,349.138 97.621 C 348.988 97.377,349.041 97.320,349.282 97.468 C 349.493 97.599,349.667 97.547,349.667 97.353 C 349.667 97.159,349.527 97.000,349.356 97.000 C 349.185 97.000,348.955 96.718,348.846 96.373 C 348.559 95.470,347.475 94.303,347.188 94.589 C 347.054 94.724,346.975 94.683,347.012 94.500 C 347.142 93.855,346.994 93.453,346.390 92.804 C 346.055 92.444,345.513 91.742,345.187 91.244 C 344.861 90.746,344.477 90.411,344.335 90.499 C 344.004 90.704,343.170 89.719,343.443 89.446 C 343.656 89.233,342.575 87.529,341.679 86.667 C 341.393 86.392,340.739 85.601,340.225 84.910 C 339.705 84.212,339.129 83.754,338.927 83.879 C 338.708 84.014,338.659 83.948,338.804 83.714 C 338.945 83.485,338.506 82.792,337.738 82.032 C 337.020 81.321,336.336 80.488,336.219 80.182 C 336.101 79.875,335.850 79.720,335.661 79.837 C 335.472 79.954,335.358 79.851,335.408 79.608 C 335.459 79.365,335.301 79.208,335.059 79.258 C 334.816 79.309,334.706 79.206,334.815 79.030 C 334.924 78.854,334.628 78.325,334.158 77.855 C 333.262 76.959,332.794 76.730,333.198 77.385 C 333.351 77.631,333.289 77.679,333.029 77.518 C 332.805 77.379,332.702 77.056,332.800 76.800 C 332.905 76.526,332.769 76.333,332.470 76.333 C 332.190 76.333,332.053 76.183,332.167 76.000 C 332.280 75.817,332.130 75.667,331.833 75.667 C 331.537 75.667,331.387 75.517,331.500 75.333 C 331.613 75.150,331.481 75.000,331.206 75.000 C 330.931 75.000,330.599 74.827,330.468 74.615 C 330.309 74.358,330.386 74.318,330.698 74.494 C 330.956 74.639,329.903 73.470,328.360 71.898 C 326.816 70.325,325.391 69.067,325.193 69.102 C 324.995 69.138,324.871 68.979,324.917 68.750 C 324.962 68.521,324.766 68.333,324.480 68.333 C 324.195 68.333,324.053 68.183,324.167 68.000 C 324.280 67.817,324.130 67.667,323.833 67.667 C 323.506 67.667,323.389 67.513,323.535 67.277 C 323.699 67.012,323.592 66.957,323.204 67.106 C 322.852 67.241,322.714 67.194,322.844 66.983 C 323.055 66.642,321.384 65.100,320.955 65.239 C 320.832 65.279,320.529 65.054,320.282 64.739 C 319.868 64.212,319.886 64.205,320.500 64.661 C 321.160 65.150,321.160 65.148,320.532 64.411 C 320.182 64.002,319.731 63.667,319.529 63.667 C 319.326 63.667,318.973 63.367,318.744 63.000 C 318.515 62.633,318.095 62.333,317.811 62.333 C 317.527 62.333,317.387 62.183,317.500 62.000 C 317.613 61.817,317.585 61.666,317.436 61.665 C 317.288 61.664,316.623 61.177,315.959 60.582 C 314.323 59.115,313.333 58.315,313.333 58.459 C 313.333 58.525,312.789 58.065,312.123 57.437 C 311.457 56.809,310.715 56.371,310.473 56.464 C 310.221 56.561,310.101 56.459,310.190 56.225 C 310.276 56.001,309.856 55.536,309.257 55.190 C 308.657 54.845,307.895 54.283,307.563 53.941 C 307.232 53.598,306.782 53.421,306.563 53.546 C 306.345 53.671,306.278 53.650,306.415 53.500 C 306.722 53.161,304.438 51.563,304.017 51.823 C 303.850 51.926,303.604 51.835,303.472 51.621 C 303.309 51.357,303.382 51.317,303.698 51.498 C 303.956 51.644,303.835 51.443,303.431 51.049 C 303.026 50.655,302.538 50.333,302.347 50.333 C 302.156 50.333,302.000 50.183,302.000 50.000 C 302.000 49.817,301.691 49.667,301.314 49.667 C 300.936 49.667,300.720 49.517,300.833 49.333 C 300.947 49.150,300.805 49.000,300.520 49.000 C 300.234 49.000,300.000 48.850,300.000 48.667 C 300.000 48.483,299.691 48.333,299.314 48.333 C 298.936 48.333,298.720 48.183,298.833 48.000 C 298.947 47.817,298.805 47.667,298.520 47.667 C 298.234 47.667,298.000 47.545,298.000 47.396 C 298.000 47.246,297.475 46.918,296.833 46.667 C 296.192 46.415,295.667 46.071,295.667 45.902 C 295.667 45.733,295.434 45.685,295.149 45.794 C 294.865 45.903,294.718 45.853,294.824 45.682 C 294.929 45.512,294.485 45.120,293.836 44.812 C 293.187 44.504,292.579 44.127,292.484 43.974 C 292.389 43.821,292.067 43.790,291.768 43.905 C 291.404 44.044,291.304 43.984,291.465 43.723 C 291.723 43.305,290.183 42.501,289.383 42.636 C 289.136 42.677,289.032 42.551,289.153 42.355 C 289.357 42.025,287.821 41.157,287.250 41.280 C 287.112 41.309,287.000 41.206,287.000 41.050 C 287.000 40.658,274.037 34.185,273.776 34.446 C 273.661 34.562,273.401 34.444,273.200 34.185 C 272.998 33.925,272.533 33.665,272.167 33.606 C 271.800 33.548,271.425 33.425,271.333 33.333 C 270.827 32.827,269.630 32.368,269.223 32.525 C 268.964 32.624,268.663 32.471,268.553 32.186 C 268.444 31.900,268.123 31.667,267.839 31.667 C 267.556 31.667,267.064 31.534,266.745 31.372 C 266.427 31.210,265.754 30.910,265.250 30.706 C 264.746 30.501,263.968 30.163,263.522 29.955 C 263.076 29.748,262.406 29.657,262.033 29.755 C 261.661 29.852,261.388 29.791,261.428 29.620 C 261.516 29.240,255.090 27.092,254.087 27.166 C 253.694 27.195,253.400 27.066,253.436 26.879 C 253.471 26.692,253.200 26.485,252.833 26.419 C 252.467 26.353,251.867 26.168,251.500 26.008 C 250.552 25.594,249.037 25.273,247.574 25.176 C 246.882 25.130,246.207 24.973,246.074 24.826 C 245.942 24.680,246.044 24.682,246.302 24.831 C 246.622 25.018,246.692 24.978,246.523 24.705 C 246.388 24.485,246.027 24.385,245.722 24.482 C 245.417 24.579,244.784 24.459,244.317 24.217 C 243.849 23.974,242.923 23.794,242.258 23.816 C 241.588 23.838,241.075 23.702,241.107 23.511 C 241.140 23.320,240.383 23.122,239.408 23.066 C 238.441 23.010,237.732 22.830,237.834 22.666 C 237.935 22.502,237.696 22.430,237.304 22.506 C 236.911 22.581,236.119 22.449,235.545 22.212 C 234.970 21.975,233.900 21.793,233.167 21.807 C 232.433 21.822,231.665 21.675,231.458 21.482 C 231.252 21.289,230.352 21.139,229.458 21.149 C 228.565 21.159,227.647 20.991,227.420 20.777 C 227.193 20.563,226.143 20.387,225.087 20.385 C 224.031 20.384,223.017 20.354,222.833 20.319 C 222.650 20.283,222.387 20.272,222.250 20.294 C 222.112 20.316,222.000 20.177,222.000 19.987 C 222.000 19.767,220.994 19.675,219.250 19.737 C 217.116 19.812,216.413 19.721,216.110 19.333 C 215.735 18.852,187.803 18.471,184.897 18.907 M199.000 114.667 L 199.000 133.667 224.314 133.667 C 240.830 133.667,249.699 133.783,249.833 134.000 C 249.947 134.183,249.805 134.333,249.520 134.333 C 249.164 134.333,249.000 134.650,249.000 135.333 C 249.000 135.883,248.850 136.333,248.667 136.333 C 248.483 136.333,248.333 136.774,248.333 137.314 C 248.333 137.853,248.187 138.384,248.008 138.495 C 247.829 138.605,247.733 139.126,247.794 139.653 C 247.880 140.388,247.791 140.566,247.410 140.419 C 247.013 140.267,246.943 140.473,247.058 141.458 C 247.165 142.372,247.091 142.645,246.768 142.521 C 246.485 142.412,246.333 142.634,246.333 143.157 C 246.333 143.599,246.183 144.053,246.000 144.167 C 245.817 144.280,245.667 144.709,245.667 145.120 C 245.667 145.531,245.543 146.009,245.391 146.183 C 244.875 146.777,244.249 149.261,244.510 149.683 C 244.676 149.952,244.635 150.020,244.395 149.871 C 244.164 149.729,243.934 149.998,243.797 150.570 C 243.675 151.081,243.429 151.686,243.250 151.912 C 243.072 152.139,243.015 152.557,243.124 152.842 C 243.237 153.138,243.111 153.440,242.828 153.548 C 242.552 153.654,242.333 154.155,242.333 154.683 C 242.333 155.202,242.187 155.718,242.008 155.828 C 241.829 155.939,241.733 156.460,241.794 156.986 C 241.880 157.722,241.791 157.899,241.410 157.753 C 241.013 157.600,240.943 157.806,241.058 158.792 C 241.165 159.706,241.091 159.978,240.768 159.854 C 240.501 159.752,240.333 159.942,240.333 160.344 C 240.333 160.989,240.001 161.000,219.665 161.000 L 198.996 161.000 199.002 208.333 C 199.008 249.057,199.075 255.667,199.483 255.667 C 199.841 255.667,199.911 255.959,199.766 256.853 C 199.538 258.256,200.260 260.748,200.800 260.425 C 201.002 260.304,200.949 260.474,200.682 260.802 C 200.255 261.327,200.264 261.434,200.752 261.708 C 201.056 261.878,201.227 262.223,201.130 262.475 C 201.034 262.727,201.115 263.032,201.311 263.153 C 201.506 263.274,201.667 263.656,201.667 264.003 C 201.667 264.350,201.905 264.767,202.197 264.930 C 202.488 265.093,202.732 265.363,202.739 265.530 C 202.777 266.458,203.666 267.667,204.310 267.667 C 204.506 267.667,204.632 267.779,204.589 267.917 C 204.445 268.383,205.762 269.609,206.219 269.434 C 206.511 269.322,206.609 269.429,206.492 269.734 C 206.379 270.028,206.663 270.386,207.238 270.675 C 207.749 270.932,208.588 271.427,209.103 271.774 C 209.617 272.122,210.130 272.314,210.242 272.202 C 210.354 272.090,210.712 272.239,211.037 272.533 C 211.362 272.828,211.824 272.998,212.064 272.913 C 212.304 272.827,212.793 272.908,213.151 273.093 C 213.509 273.278,214.776 273.493,215.968 273.572 C 217.159 273.650,218.394 273.854,218.712 274.024 C 219.491 274.441,222.554 274.417,223.356 273.988 C 223.712 273.797,224.990 273.634,226.197 273.625 C 227.404 273.616,228.910 273.392,229.544 273.127 C 230.178 272.862,230.830 272.728,230.993 272.829 C 231.157 272.930,231.830 272.710,232.489 272.340 C 233.740 271.637,234.532 271.424,233.667 272.023 C 233.256 272.308,233.285 272.348,233.833 272.248 C 234.200 272.182,234.475 271.985,234.444 271.812 C 234.413 271.639,234.863 271.498,235.444 271.498 C 236.059 271.499,236.470 271.340,236.428 271.118 C 236.387 270.900,236.618 270.803,236.963 270.894 C 237.551 271.048,240.127 269.905,239.840 269.618 C 239.762 269.540,240.104 269.482,240.599 269.488 C 241.175 269.496,241.467 269.341,241.408 269.059 C 241.356 268.806,241.477 268.716,241.690 268.848 C 241.896 268.975,242.439 268.878,242.899 268.632 C 243.929 268.080,244.670 268.830,244.415 270.167 C 244.322 270.653,244.411 271.000,244.628 271.000 C 244.833 271.000,245.000 271.385,245.000 271.855 C 245.000 272.326,245.180 273.038,245.400 273.439 C 245.620 273.839,245.756 274.525,245.703 274.964 C 245.630 275.565,245.733 275.713,246.120 275.564 C 246.462 275.433,246.575 275.519,246.458 275.823 C 246.361 276.074,246.535 276.704,246.843 277.223 C 247.309 278.007,247.313 278.057,246.868 277.520 C 246.574 277.164,246.333 277.041,246.333 277.246 C 246.333 277.451,246.533 277.819,246.777 278.063 C 247.021 278.306,247.152 278.709,247.069 278.958 C 246.915 279.423,247.498 281.716,248.032 282.745 C 248.198 283.064,248.333 283.692,248.333 284.142 C 248.333 284.592,248.483 285.053,248.667 285.167 C 248.850 285.280,249.000 285.659,249.000 286.009 C 249.000 286.470,249.161 286.590,249.583 286.445 C 250.058 286.281,250.043 286.344,249.500 286.782 C 249.047 287.148,248.952 287.403,249.204 287.577 C 249.408 287.718,249.670 288.321,249.787 288.917 C 249.904 289.512,250.095 290.487,250.212 291.083 C 250.328 291.679,250.608 292.275,250.833 292.408 C 251.181 292.613,251.245 293.227,251.043 294.417 C 251.019 294.554,250.887 294.631,250.750 294.588 C 250.612 294.545,249.075 295.205,247.333 296.055 C 245.592 296.904,243.679 297.801,243.083 298.048 C 242.487 298.294,242.000 298.577,242.000 298.675 C 242.000 298.774,241.588 298.888,241.083 298.928 C 240.579 298.968,240.017 299.202,239.833 299.447 C 239.650 299.692,239.298 299.824,239.050 299.741 C 238.803 299.657,238.278 299.749,237.884 299.944 C 237.489 300.139,236.867 300.353,236.500 300.419 C 236.133 300.485,235.860 300.687,235.893 300.867 C 235.927 301.048,235.459 301.136,234.849 301.065 C 234.242 300.994,233.645 301.099,233.522 301.298 C 233.378 301.531,233.512 301.582,233.899 301.443 C 234.230 301.324,234.383 301.355,234.241 301.512 C 234.098 301.668,233.372 301.760,232.627 301.716 C 231.882 301.672,231.095 301.783,230.879 301.962 C 230.664 302.141,229.815 302.335,228.993 302.394 C 228.119 302.456,227.529 302.655,227.569 302.874 C 227.615 303.125,227.150 303.193,226.158 303.081 C 225.344 302.990,224.253 303.091,223.733 303.306 C 222.718 303.726,220.794 303.877,211.609 304.257 C 208.257 304.395,205.169 304.369,204.443 304.196 C 203.741 304.029,201.791 303.882,200.109 303.869 C 198.326 303.856,197.075 303.711,197.109 303.522 C 197.141 303.344,196.417 303.151,195.500 303.093 C 194.583 303.034,193.508 302.821,193.110 302.618 C 192.713 302.416,191.934 302.316,191.381 302.397 C 190.789 302.484,190.400 302.402,190.437 302.197 C 190.472 302.006,190.125 301.802,189.667 301.744 C 189.208 301.686,188.506 301.475,188.106 301.275 C 187.706 301.075,187.156 300.997,186.883 301.101 C 186.606 301.208,186.301 301.064,186.190 300.775 C 186.054 300.420,185.687 300.304,185.016 300.402 C 184.455 300.484,184.067 300.399,184.104 300.201 C 184.138 300.012,183.762 299.847,183.267 299.834 C 182.772 299.822,182.247 299.680,182.100 299.519 C 181.949 299.353,182.050 299.343,182.333 299.495 C 182.710 299.698,182.743 299.666,182.466 299.365 C 182.265 299.146,181.787 298.943,181.406 298.914 C 181.025 298.885,180.776 298.760,180.853 298.635 C 181.011 298.379,179.718 297.901,179.078 297.980 C 178.846 298.008,178.696 297.837,178.745 297.599 C 178.793 297.361,178.533 297.160,178.167 297.151 C 177.800 297.143,177.537 296.955,177.583 296.734 C 177.629 296.514,177.454 296.333,177.194 296.333 C 176.935 296.333,176.672 296.221,176.611 296.083 C 176.372 295.545,174.067 294.042,173.821 294.264 C 173.677 294.394,173.657 294.329,173.777 294.120 C 173.901 293.903,173.357 293.260,172.507 292.620 C 171.690 292.004,171.012 291.350,171.003 291.167 C 170.993 290.983,170.463 290.254,169.826 289.547 C 169.188 288.839,168.667 288.149,168.667 288.014 C 168.667 287.793,168.160 287.114,166.923 285.675 C 166.690 285.404,166.521 285.104,166.546 285.008 C 166.643 284.633,165.208 281.705,164.992 281.838 C 164.866 281.916,164.834 281.609,164.920 281.157 C 165.012 280.679,164.922 280.333,164.706 280.333 C 164.501 280.333,164.333 279.883,164.333 279.333 C 164.333 278.783,164.183 278.333,164.000 278.333 C 163.817 278.333,163.667 277.948,163.667 277.476 C 163.667 277.005,163.455 276.407,163.196 276.149 C 162.938 275.890,162.805 275.375,162.902 275.004 C 162.999 274.633,162.887 274.098,162.652 273.816 C 162.417 273.533,162.248 272.726,162.275 272.022 C 162.303 271.318,162.134 270.583,161.901 270.389 C 161.620 270.157,161.505 269.326,161.561 267.949 C 161.612 266.726,161.498 265.769,161.288 265.639 C 161.051 265.492,160.940 263.311,160.961 259.209 C 160.984 254.480,160.893 253.000,160.579 253.000 C 160.253 253.000,160.185 243.379,160.252 207.000 L 160.338 161.000 149.002 161.000 C 141.667 161.000,137.667 160.882,137.667 160.667 C 137.667 160.483,137.803 160.333,137.970 160.333 C 138.137 160.333,138.271 159.396,138.269 158.250 C 138.267 157.104,138.425 155.759,138.621 155.260 C 138.816 154.761,138.967 153.711,138.955 152.926 C 138.944 152.142,139.098 151.081,139.298 150.569 C 139.497 150.058,139.639 149.080,139.612 148.397 C 139.585 147.715,139.752 146.586,139.982 145.889 C 140.211 145.193,140.321 144.322,140.225 143.954 C 140.129 143.587,140.249 142.584,140.491 141.726 C 140.734 140.868,140.954 139.417,140.980 138.500 C 141.005 137.583,141.046 136.676,141.069 136.484 C 141.092 136.292,141.724 136.142,142.472 136.151 C 143.262 136.160,143.807 136.017,143.770 135.811 C 143.733 135.599,144.105 135.513,144.691 135.599 C 145.531 135.722,145.646 135.652,145.473 135.122 C 145.333 134.692,145.365 134.631,145.576 134.924 C 145.933 135.419,148.541 134.991,148.439 134.453 C 148.405 134.276,148.780 134.139,149.272 134.149 C 149.764 134.159,150.137 134.001,150.100 133.799 C 150.060 133.581,150.362 133.495,150.846 133.587 C 151.389 133.691,151.727 133.565,151.864 133.207 C 151.977 132.912,152.194 132.748,152.347 132.842 C 152.499 132.936,153.196 132.687,153.895 132.288 C 154.594 131.890,155.755 131.250,156.473 130.865 C 157.192 130.481,158.277 129.701,158.884 129.133 C 159.491 128.564,160.066 128.177,160.161 128.272 C 160.256 128.367,160.333 128.186,160.333 127.869 C 160.333 127.553,160.465 127.375,160.626 127.475 C 160.939 127.668,165.637 122.876,166.589 121.392 C 166.904 120.901,167.429 120.205,167.756 119.845 C 168.082 119.485,168.278 119.002,168.189 118.772 C 168.101 118.543,168.196 118.252,168.399 118.126 C 168.638 117.979,168.682 118.064,168.523 118.365 C 168.387 118.623,168.590 118.458,168.974 118.000 C 169.357 117.542,169.610 116.904,169.534 116.584 C 169.458 116.263,169.555 115.902,169.749 115.782 C 169.957 115.654,170.005 115.722,169.865 115.948 C 169.734 116.160,169.749 116.329,169.897 116.324 C 170.209 116.312,173.000 110.695,173.000 110.079 C 173.000 109.852,173.150 109.667,173.333 109.667 C 173.517 109.667,173.667 109.508,173.667 109.314 C 173.667 109.120,173.479 109.056,173.250 109.172 C 173.021 109.289,173.188 109.072,173.622 108.691 C 174.138 108.237,174.350 107.767,174.236 107.332 C 174.141 106.965,174.182 106.740,174.329 106.831 C 174.647 107.027,175.000 106.213,175.000 105.286 C 175.000 104.924,175.150 104.720,175.333 104.833 C 175.522 104.950,175.667 104.677,175.667 104.206 C 175.667 103.748,175.817 103.280,176.000 103.167 C 176.183 103.053,176.333 102.603,176.333 102.167 C 176.333 101.730,176.483 101.280,176.667 101.167 C 176.850 101.053,177.000 100.603,177.000 100.167 C 177.000 99.730,177.150 99.280,177.333 99.167 C 177.517 99.053,177.667 98.603,177.667 98.167 C 177.667 97.730,177.817 97.280,178.000 97.167 C 178.183 97.053,178.333 96.670,178.333 96.314 C 178.333 95.687,178.660 95.667,188.667 95.667 L 199.000 95.667 199.000 114.667 M249.000 133.000 C 249.000 133.219,240.667 133.333,224.667 133.333 C 208.667 133.333,200.333 133.219,200.333 133.000 C 200.333 132.781,208.667 132.667,224.667 132.667 C 240.667 132.667,249.000 132.781,249.000 133.000 M159.000 161.667 C 159.000 161.882,155.333 162.000,148.667 162.000 C 142.000 162.000,138.333 161.882,138.333 161.667 C 138.333 161.452,142.000 161.333,148.667 161.333 C 155.333 161.333,159.000 161.452,159.000 161.667 M239.667 161.667 C 239.667 161.885,232.889 162.000,220.000 162.000 C 207.111 162.000,200.333 161.885,200.333 161.667 C 200.333 161.448,207.111 161.333,220.000 161.333 C 232.889 161.333,239.667 161.448,239.667 161.667 M160.577 257.576 C 160.504 258.267,160.444 257.783,160.443 256.500 C 160.441 255.217,160.500 254.651,160.574 255.243 C 160.648 255.834,160.649 256.884,160.577 257.576 M160.529 260.915 C 160.171 261.273,159.981 260.771,160.232 260.131 C 160.468 259.530,160.486 259.529,160.603 260.109 C 160.670 260.445,160.637 260.807,160.529 260.915 M221.750 273.902 C 221.338 273.981,220.662 273.981,220.250 273.902 C 219.838 273.822,220.175 273.757,221.000 273.757 C 221.825 273.757,222.162 273.822,221.750 273.902 "
            stroke="none" fill="#1ca49c" fill-rule="evenodd"></path>
        <path id="path1"
            d="M200.333 133.000 C 200.333 133.219,208.667 133.333,224.667 133.333 C 240.667 133.333,249.000 133.219,249.000 133.000 C 249.000 132.781,240.667 132.667,224.667 132.667 C 208.667 132.667,200.333 132.781,200.333 133.000 M138.333 161.667 C 138.333 161.882,142.000 162.000,148.667 162.000 C 155.333 162.000,159.000 161.882,159.000 161.667 C 159.000 161.452,155.333 161.333,148.667 161.333 C 142.000 161.333,138.333 161.452,138.333 161.667 M200.333 161.667 C 200.333 161.885,207.111 162.000,220.000 162.000 C 232.889 162.000,239.667 161.885,239.667 161.667 C 239.667 161.448,232.889 161.333,220.000 161.333 C 207.111 161.333,200.333 161.448,200.333 161.667 M160.443 256.500 C 160.444 257.783,160.504 258.267,160.577 257.576 C 160.649 256.884,160.648 255.834,160.574 255.243 C 160.500 254.651,160.441 255.217,160.443 256.500 M160.232 260.131 C 160.096 260.478,160.063 260.841,160.159 260.937 C 160.463 261.241,160.730 260.742,160.603 260.109 C 160.486 259.529,160.468 259.530,160.232 260.131 M220.250 273.902 C 220.662 273.981,221.338 273.981,221.750 273.902 C 222.162 273.822,221.825 273.757,221.000 273.757 C 220.175 273.757,219.838 273.822,220.250 273.902 "
            stroke="none" fill="#20a49c" fill-rule="evenodd"></path>
        <path id="path2"
            d="M200.333 133.000 C 200.333 133.219,208.667 133.333,224.667 133.333 C 240.667 133.333,249.000 133.219,249.000 133.000 C 249.000 132.781,240.667 132.667,224.667 132.667 C 208.667 132.667,200.333 132.781,200.333 133.000 M138.333 161.667 C 138.333 161.882,142.000 162.000,148.667 162.000 C 155.333 162.000,159.000 161.882,159.000 161.667 C 159.000 161.452,155.333 161.333,148.667 161.333 C 142.000 161.333,138.333 161.452,138.333 161.667 M200.333 161.667 C 200.333 161.885,207.111 162.000,220.000 162.000 C 232.889 162.000,239.667 161.885,239.667 161.667 C 239.667 161.448,232.889 161.333,220.000 161.333 C 207.111 161.333,200.333 161.448,200.333 161.667 M160.443 256.500 C 160.444 257.783,160.504 258.267,160.577 257.576 C 160.649 256.884,160.648 255.834,160.574 255.243 C 160.500 254.651,160.441 255.217,160.443 256.500 M160.232 260.131 C 160.096 260.478,160.063 260.841,160.159 260.937 C 160.463 261.241,160.730 260.742,160.603 260.109 C 160.486 259.529,160.468 259.530,160.232 260.131 M220.250 273.902 C 220.662 273.981,221.338 273.981,221.750 273.902 C 222.162 273.822,221.825 273.757,221.000 273.757 C 220.175 273.757,219.838 273.822,220.250 273.902 "
            stroke="none" fill="#20a49c" fill-rule="evenodd"></path>
        <path id="path3"
            d="M200.333 133.000 C 200.333 133.219,208.667 133.333,224.667 133.333 C 240.667 133.333,249.000 133.219,249.000 133.000 C 249.000 132.781,240.667 132.667,224.667 132.667 C 208.667 132.667,200.333 132.781,200.333 133.000 M138.333 161.667 C 138.333 161.882,142.000 162.000,148.667 162.000 C 155.333 162.000,159.000 161.882,159.000 161.667 C 159.000 161.452,155.333 161.333,148.667 161.333 C 142.000 161.333,138.333 161.452,138.333 161.667 M200.333 161.667 C 200.333 161.885,207.111 162.000,220.000 162.000 C 232.889 162.000,239.667 161.885,239.667 161.667 C 239.667 161.448,232.889 161.333,220.000 161.333 C 207.111 161.333,200.333 161.448,200.333 161.667 M160.443 256.500 C 160.444 257.783,160.504 258.267,160.577 257.576 C 160.649 256.884,160.648 255.834,160.574 255.243 C 160.500 254.651,160.441 255.217,160.443 256.500 M160.232 260.131 C 160.096 260.478,160.063 260.841,160.159 260.937 C 160.463 261.241,160.730 260.742,160.603 260.109 C 160.486 259.529,160.468 259.530,160.232 260.131 M220.250 273.902 C 220.662 273.981,221.338 273.981,221.750 273.902 C 222.162 273.822,221.825 273.757,221.000 273.757 C 220.175 273.757,219.838 273.822,220.250 273.902 "
            stroke="none" fill="#20a49c" fill-rule="evenodd"></path>
        <path id="path4"
            d="M200.333 133.000 C 200.333 133.219,208.667 133.333,224.667 133.333 C 240.667 133.333,249.000 133.219,249.000 133.000 C 249.000 132.781,240.667 132.667,224.667 132.667 C 208.667 132.667,200.333 132.781,200.333 133.000 M138.333 161.667 C 138.333 161.882,142.000 162.000,148.667 162.000 C 155.333 162.000,159.000 161.882,159.000 161.667 C 159.000 161.452,155.333 161.333,148.667 161.333 C 142.000 161.333,138.333 161.452,138.333 161.667 M200.333 161.667 C 200.333 161.885,207.111 162.000,220.000 162.000 C 232.889 162.000,239.667 161.885,239.667 161.667 C 239.667 161.448,232.889 161.333,220.000 161.333 C 207.111 161.333,200.333 161.448,200.333 161.667 M160.443 256.500 C 160.444 257.783,160.504 258.267,160.577 257.576 C 160.649 256.884,160.648 255.834,160.574 255.243 C 160.500 254.651,160.441 255.217,160.443 256.500 M160.232 260.131 C 160.096 260.478,160.063 260.841,160.159 260.937 C 160.463 261.241,160.730 260.742,160.603 260.109 C 160.486 259.529,160.468 259.530,160.232 260.131 M220.250 273.902 C 220.662 273.981,221.338 273.981,221.750 273.902 C 222.162 273.822,221.825 273.757,221.000 273.757 C 220.175 273.757,219.838 273.822,220.250 273.902 "
            stroke="none" fill="#20a49c" fill-rule="evenodd"></path>
    </g>
</svg>