<?xml version="1.0" encoding="utf-8"?>
<!-- Generator: Adobe Illustrator 19.2.1, SVG Export Plug-In . SVG Version: 6.00 Build 0)  -->
<svg version="1.1" id="thinkific" xmlns="http://www.w3.org/2000/svg" xmlns:xlink="http://www.w3.org/1999/xlink" x="0px"
	y="0px" viewBox="0 0 652 652" style="enable-background:new 0 0 652 652;" xml:space="preserve" height="12rem"
	width="11.9rem">
	<style type="text/css">
		.st0 {
			fill: #0C1927;
			width: 20rem;

		}
	</style>
	<g>
		<path class="st0"
			d="M68.7,287.6H25.3c-2.5,0-4.6,2-4.5,4.6c0,2.5,2,4.5,4.5,4.5h17.2v51.8c0,2.5,2,4.6,4.6,4.6
		c2.5,0,4.6-2,4.6-4.6v-51.8h17.2c2.5,0,4.6-2,4.6-4.6C73.2,289.6,71.2,287.6,68.7,287.6C68.7,287.6,68.7,287.6,68.7,287.6z" />
		<path class="st0" d="M151.7,287.6c-2.5,0-4.5,2-4.6,4.5c0,0,0,0,0,0v23.6h-38v-23.6c0-2.5-2-4.6-4.6-4.6s-4.6,2-4.6,4.6l0,0v56.3
		c0,2.5,2,4.6,4.6,4.6s4.6-2,4.6-4.6v-23.6h38v23.6c0,2.5,2,4.6,4.5,4.6c2.5,0,4.6-2,4.6-4.5c0,0,0,0,0,0v-56.3
		C156.2,289.6,154.2,287.6,151.7,287.6z" />
		<path class="st0" d="M195.4,287.6c-2.5,0-4.5,2-4.6,4.5c0,0,0,0,0,0v56.3c0,2.5,2,4.6,4.5,4.6s4.6-2,4.6-4.5c0,0,0,0,0,0v-56.3
		C199.9,289.6,197.9,287.6,195.4,287.6z" />
		<path class="st0" d="M330.2,287.6c-2.5,0-4.6,2-4.6,4.6c0,0,0,0,0,0v56.3c0,2.5,2,4.6,4.5,4.6c2.5,0,4.6-2,4.6-4.5c0,0,0,0,0,0
		v-56.3C334.8,289.6,332.8,287.6,330.2,287.6C330.2,287.6,330.2,287.6,330.2,287.6L330.2,287.6z" />
		<path class="st0" d="M414.1,287.6c-2.5,0-4.6,2-4.6,4.6c0,0,0,0,0,0v56.3c0,2.5,2,4.6,4.5,4.6c2.5,0,4.6-2,4.6-4.5c0,0,0,0,0,0
		v-56.3C418.6,289.6,416.6,287.6,414.1,287.6C414.1,287.6,414.1,287.6,414.1,287.6L414.1,287.6z" />
		<path class="st0" d="M528.1,287.6c-2.5,0-4.6,2-4.6,4.6c0,0,0,0,0,0v56.3c0,2.5,2,4.6,4.6,4.6c2.5,0,4.6-2,4.6-4.6v-56.3
		C532.6,289.6,530.6,287.6,528.1,287.6C528.1,287.6,528.1,287.6,528.1,287.6z" />
		<path class="st0" d="M492.4,287.6h-34.7c-2.5,0-4.5,2-4.6,4.5c0,0,0,0,0,0v56.3c0,2.5,2,4.6,4.5,4.6s4.6-2,4.6-4.5c0,0,0,0,0,0
		v-22.3H489c2.5,0,4.6-2,4.6-4.6c0-2.5-2-4.6-4.6-4.6h-26.8v-20.4h30.2c2.5,0,4.6-2,4.6-4.6C497,289.6,494.9,287.6,492.4,287.6
		L492.4,287.6z" />
		<path class="st0" d="M286.5,287.6c-2.5,0-4.5,2-4.6,4.5c0,0,0,0,0,0v43.8l-39.1-46.7c-1.6-1.9-4.5-2.2-6.4-0.6
		c-1,0.9-1.6,2.1-1.6,3.5v56.4c0,2.5,2,4.6,4.5,4.6c2.5,0,4.6-2,4.6-4.5c0,0,0,0,0,0v-43.8l39.1,46.7c1.6,1.9,4.5,2.2,6.4,0.6
		c1-0.9,1.6-2.1,1.6-3.5v-56.4C291,289.6,289,287.6,286.5,287.6L286.5,287.6L286.5,287.6z" />
		<path class="st0" d="M613,338.3c-9.7,9.7-25.5,9.7-35.2,0c-9.7-9.7-9.7-25.5,0-35.2s25.5-9.7,35.2,0c0,0,0,0,0,0
		c1.9,1.7,4.7,1.6,6.4-0.3c1.6-1.7,1.6-4.4,0-6.1c-13.3-13.3-34.8-13.3-48.1,0s-13.3,34.8,0,48.1c13.3,13.3,34.8,13.3,48.1,0
		c0,0,0,0,0,0c1.7-1.8,1.7-4.7-0.1-6.4C617.5,336.7,614.8,336.7,613,338.3z" />
		<path class="st0"
			d="M374.7,288.5c-2-1.5-4.8-1.2-6.4,0.8c0,0,0,0,0,0l-21.7,28.2c-1.3,1.6-1.3,3.9,0,5.6l21.7,28.2
		c1.6,2,4.4,2.3,6.4,0.7c1.9-1.5,2.3-4.3,0.8-6.3L356,320.3l19.6-25.4C377.1,292.9,376.7,290.1,374.7,288.5L374.7,288.5z" />
	</g>
</svg>